<?xml version="1.0" encoding="UTF-8" standalone="no"?>
<!DOCTYPE svg PUBLIC "-//W3C//DTD SVG 1.1//EN"
 "http://www.w3.org/Graphics/SVG/1.1/DTD/svg11.dtd">
<!-- Generated by graphviz version 2.47.0 (20210316.0004)
 -->
<!-- Title: dependencies Pages: 1 -->
<svg width="742pt" height="211pt"
 viewBox="0.00 0.00 742.00 211.00" xmlns="http://www.w3.org/2000/svg" xmlns:xlink="http://www.w3.org/1999/xlink">
<g id="graph0" class="graph" transform="scale(1 1) rotate(0) translate(4 207)">
<title>dependencies</title>
<polygon fill="white" stroke="transparent" points="-4,4 -4,-207 738,-207 738,4 -4,4"/>
<text text-anchor="start" x="346.01" y="-42.4" font-family="Times-12" font-weight="bold" font-size="14.00">Legend</text>
<polygon fill="#ffffb3" stroke="transparent" points="133,-10 133,-30 153,-30 153,-10 133,-10"/>
<text text-anchor="start" x="156.63" y="-15.4" font-family="Times-12" font-size="14.00"> &#160;Declarations</text>
<polygon fill="#8dd3c7" stroke="transparent" points="246,-10 246,-30 266,-30 266,-10 246,-10"/>
<text text-anchor="start" x="269.73" y="-15.4" font-family="Times-12" font-size="14.00"> &#160;Module</text>
<polygon fill="#80b1d3" stroke="transparent" points="332,-10 332,-30 352,-30 352,-10 332,-10"/>
<text text-anchor="start" x="355.78" y="-15.4" font-family="Times-12" font-size="14.00"> &#160;Bootstrap</text>
<polygon fill="#fdb462" stroke="transparent" points="429,-10 429,-30 449,-30 449,-10 429,-10"/>
<text text-anchor="start" x="452.67" y="-15.4" font-family="Times-12" font-size="14.00"> &#160;Providers</text>
<polygon fill="#fb8072" stroke="transparent" points="525,-10 525,-30 545,-30 545,-10 525,-10"/>
<text text-anchor="start" x="548.73" y="-15.4" font-family="Times-12" font-size="14.00"> &#160;Exports</text>
<g id="clust1" class="cluster">
<title>cluster_FicheModule</title>
<polygon fill="none" stroke="black" stroke-dasharray="1,5" points="8,-70 8,-195 726,-195 726,-70 8,-70"/>
</g>
<g id="clust7" class="cluster">
<title>cluster_FicheModule_imports</title>
<polygon fill="none" stroke="black" points="566,-78 566,-130 718,-130 718,-78 566,-78"/>
</g>
<g id="clust2" class="cluster">
<title>cluster_FicheModule_declarations</title>
<polygon fill="none" stroke="black" points="16,-78 16,-130 558,-130 558,-78 16,-78"/>
</g>
<!-- FAddComponent -->
<g id="node1" class="node">
<title>FAddComponent</title>
<polygon fill="#ffffb3" stroke="black" points="549.72,-122 436.28,-122 436.28,-86 549.72,-86 549.72,-122"/>
<text text-anchor="middle" x="493" y="-99.8" font-family="Times,serif" font-size="14.00">FAddComponent</text>
</g>
<!-- FicheModule -->
<g id="node5" class="node">
<title>FicheModule</title>
<polygon fill="#8dd3c7" stroke="black" points="401.15,-187 398.15,-191 377.15,-191 374.15,-187 310.85,-187 310.85,-151 401.15,-151 401.15,-187"/>
<text text-anchor="middle" x="356" y="-164.8" font-family="Times,serif" font-size="14.00">FicheModule</text>
</g>
<!-- FAddComponent&#45;&gt;FicheModule -->
<g id="edge1" class="edge">
<title>FAddComponent&#45;&gt;FicheModule</title>
<path fill="none" stroke="black" d="M493,-122.02C493,-139.37 493,-163 493,-163 493,-163 411.24,-163 411.24,-163"/>
<polygon fill="black" stroke="black" points="411.24,-159.5 401.24,-163 411.24,-166.5 411.24,-159.5"/>
</g>
<!-- FDeleteComponent -->
<g id="node2" class="node">
<title>FDeleteComponent</title>
<polygon fill="#ffffb3" stroke="black" points="418.65,-122 293.35,-122 293.35,-86 418.65,-86 418.65,-122"/>
<text text-anchor="middle" x="356" y="-99.8" font-family="Times,serif" font-size="14.00">FDeleteComponent</text>
</g>
<!-- FDeleteComponent&#45;&gt;FicheModule -->
<g id="edge2" class="edge">
<title>FDeleteComponent&#45;&gt;FicheModule</title>
<path fill="none" stroke="black" d="M356,-122.11C356,-122.11 356,-140.99 356,-140.99"/>
<polygon fill="black" stroke="black" points="352.5,-140.99 356,-150.99 359.5,-140.99 352.5,-140.99"/>
</g>
<!-- FEditComponent -->
<g id="node3" class="node">
<title>FEditComponent</title>
<polygon fill="#ffffb3" stroke="black" points="275.45,-122 162.55,-122 162.55,-86 275.45,-86 275.45,-122"/>
<text text-anchor="middle" x="219" y="-99.8" font-family="Times,serif" font-size="14.00">FEditComponent</text>
</g>
<!-- FEditComponent&#45;&gt;FicheModule -->
<g id="edge3" class="edge">
<title>FEditComponent&#45;&gt;FicheModule</title>
<path fill="none" stroke="black" d="M219,-122.02C219,-139.37 219,-163 219,-163 219,-163 300.76,-163 300.76,-163"/>
<polygon fill="black" stroke="black" points="300.76,-166.5 310.76,-163 300.76,-159.5 300.76,-166.5"/>
</g>
<!-- FIndexComponent -->
<g id="node4" class="node">
<title>FIndexComponent</title>
<polygon fill="#ffffb3" stroke="black" points="144.49,-122 23.51,-122 23.51,-86 144.49,-86 144.49,-122"/>
<text text-anchor="middle" x="84" y="-99.8" font-family="Times,serif" font-size="14.00">FIndexComponent</text>
</g>
<!-- FIndexComponent&#45;&gt;FicheModule -->
<g id="edge4" class="edge">
<title>FIndexComponent&#45;&gt;FicheModule</title>
<path fill="none" stroke="black" d="M84,-122.28C84,-143.32 84,-175 84,-175 84,-175 300.78,-175 300.78,-175"/>
<polygon fill="black" stroke="black" points="300.78,-178.5 310.78,-175 300.78,-171.5 300.78,-178.5"/>
</g>
<!-- FicheRoutingModule -->
<g id="node6" class="node">
<title>FicheRoutingModule</title>
<polygon fill="#8dd3c7" stroke="black" points="709.77,-122 706.77,-126 685.77,-126 682.77,-122 574.23,-122 574.23,-86 709.77,-86 709.77,-122"/>
<text text-anchor="middle" x="642" y="-99.8" font-family="Times,serif" font-size="14.00">FicheRoutingModule</text>
</g>
<!-- FicheRoutingModule&#45;&gt;FicheModule -->
<g id="edge5" class="edge">
<title>FicheRoutingModule&#45;&gt;FicheModule</title>
<path fill="none" stroke="black" d="M642,-122.28C642,-143.32 642,-175 642,-175 642,-175 411.32,-175 411.32,-175"/>
<polygon fill="black" stroke="black" points="411.32,-171.5 401.32,-175 411.32,-178.5 411.32,-171.5"/>
</g>
</g>
</svg>
