<?xml version="1.0" encoding="UTF-8" standalone="no"?>
<!DOCTYPE svg PUBLIC "-//W3C//DTD SVG 1.1//EN"
 "http://www.w3.org/Graphics/SVG/1.1/DTD/svg11.dtd">
<!-- Generated by graphviz version 2.47.0 (20210316.0004)
 -->
<!-- Title: dependencies Pages: 1 -->
<svg width="898pt" height="211pt"
 viewBox="0.00 0.00 898.00 211.00" xmlns="http://www.w3.org/2000/svg" xmlns:xlink="http://www.w3.org/1999/xlink">
<g id="graph0" class="graph" transform="scale(1 1) rotate(0) translate(4 207)">
<title>dependencies</title>
<polygon fill="white" stroke="transparent" points="-4,4 -4,-207 894,-207 894,4 -4,4"/>
<text text-anchor="start" x="424.01" y="-42.4" font-family="Times-12" font-weight="bold" font-size="14.00">Legend</text>
<polygon fill="#ffffb3" stroke="transparent" points="211,-10 211,-30 231,-30 231,-10 211,-10"/>
<text text-anchor="start" x="234.63" y="-15.4" font-family="Times-12" font-size="14.00"> &#160;Declarations</text>
<polygon fill="#8dd3c7" stroke="transparent" points="324,-10 324,-30 344,-30 344,-10 324,-10"/>
<text text-anchor="start" x="347.73" y="-15.4" font-family="Times-12" font-size="14.00"> &#160;Module</text>
<polygon fill="#80b1d3" stroke="transparent" points="410,-10 410,-30 430,-30 430,-10 410,-10"/>
<text text-anchor="start" x="433.78" y="-15.4" font-family="Times-12" font-size="14.00"> &#160;Bootstrap</text>
<polygon fill="#fdb462" stroke="transparent" points="507,-10 507,-30 527,-30 527,-10 507,-10"/>
<text text-anchor="start" x="530.67" y="-15.4" font-family="Times-12" font-size="14.00"> &#160;Providers</text>
<polygon fill="#fb8072" stroke="transparent" points="603,-10 603,-30 623,-30 623,-10 603,-10"/>
<text text-anchor="start" x="626.73" y="-15.4" font-family="Times-12" font-size="14.00"> &#160;Exports</text>
<g id="clust1" class="cluster">
<title>cluster_PublicModule</title>
<polygon fill="none" stroke="black" stroke-dasharray="1,5" points="8,-70 8,-195 882,-195 882,-70 8,-70"/>
</g>
<g id="clust8" class="cluster">
<title>cluster_PublicModule_imports</title>
<polygon fill="none" stroke="black" points="718,-78 718,-130 874,-130 874,-78 718,-78"/>
</g>
<g id="clust2" class="cluster">
<title>cluster_PublicModule_declarations</title>
<polygon fill="none" stroke="black" points="16,-78 16,-130 710,-130 710,-78 16,-78"/>
</g>
<!-- EnqueteComponent -->
<g id="node1" class="node">
<title>EnqueteComponent</title>
<polygon fill="#ffffb3" stroke="black" points="701.7,-122 574.3,-122 574.3,-86 701.7,-86 701.7,-122"/>
<text text-anchor="middle" x="638" y="-99.8" font-family="Times,serif" font-size="14.00">EnqueteComponent</text>
</g>
<!-- PublicModule -->
<g id="node6" class="node">
<title>PublicModule</title>
<polygon fill="#8dd3c7" stroke="black" points="481.83,-187 478.83,-191 457.83,-191 454.83,-187 386.17,-187 386.17,-151 481.83,-151 481.83,-187"/>
<text text-anchor="middle" x="434" y="-164.8" font-family="Times,serif" font-size="14.00">PublicModule</text>
</g>
<!-- EnqueteComponent&#45;&gt;PublicModule -->
<g id="edge1" class="edge">
<title>EnqueteComponent&#45;&gt;PublicModule</title>
<path fill="none" stroke="black" d="M638,-122.02C638,-139.37 638,-163 638,-163 638,-163 491.83,-163 491.83,-163"/>
<polygon fill="black" stroke="black" points="491.83,-159.5 481.83,-163 491.83,-166.5 491.83,-159.5"/>
</g>
<!-- FicheComponent -->
<g id="node2" class="node">
<title>FicheComponent</title>
<polygon fill="#ffffb3" stroke="black" points="556.44,-122 443.56,-122 443.56,-86 556.44,-86 556.44,-122"/>
<text text-anchor="middle" x="500" y="-99.8" font-family="Times,serif" font-size="14.00">FicheComponent</text>
</g>
<!-- FicheComponent&#45;&gt;PublicModule -->
<g id="edge2" class="edge">
<title>FicheComponent&#45;&gt;PublicModule</title>
<path fill="none" stroke="black" d="M462.72,-122.11C462.72,-122.11 462.72,-140.99 462.72,-140.99"/>
<polygon fill="black" stroke="black" points="459.22,-140.99 462.72,-150.99 466.22,-140.99 459.22,-140.99"/>
</g>
<!-- HomeComponent -->
<g id="node3" class="node">
<title>HomeComponent</title>
<polygon fill="#ffffb3" stroke="black" points="425.55,-122 310.45,-122 310.45,-86 425.55,-86 425.55,-122"/>
<text text-anchor="middle" x="368" y="-99.8" font-family="Times,serif" font-size="14.00">HomeComponent</text>
</g>
<!-- HomeComponent&#45;&gt;PublicModule -->
<g id="edge3" class="edge">
<title>HomeComponent&#45;&gt;PublicModule</title>
<path fill="none" stroke="black" d="M406.05,-122.11C406.05,-122.11 406.05,-140.99 406.05,-140.99"/>
<polygon fill="black" stroke="black" points="402.55,-140.99 406.05,-150.99 409.55,-140.99 402.55,-140.99"/>
</g>
<!-- PheaderComponent -->
<g id="node4" class="node">
<title>PheaderComponent</title>
<polygon fill="#ffffb3" stroke="black" points="292.42,-122 165.58,-122 165.58,-86 292.42,-86 292.42,-122"/>
<text text-anchor="middle" x="229" y="-99.8" font-family="Times,serif" font-size="14.00">PheaderComponent</text>
</g>
<!-- PheaderComponent&#45;&gt;PublicModule -->
<g id="edge4" class="edge">
<title>PheaderComponent&#45;&gt;PublicModule</title>
<path fill="none" stroke="black" d="M229,-122.02C229,-139.37 229,-163 229,-163 229,-163 376.2,-163 376.2,-163"/>
<polygon fill="black" stroke="black" points="376.2,-166.5 386.2,-163 376.2,-159.5 376.2,-166.5"/>
</g>
<!-- PlayoutComponent -->
<g id="node5" class="node">
<title>PlayoutComponent</title>
<polygon fill="#ffffb3" stroke="black" points="148.11,-122 23.89,-122 23.89,-86 148.11,-86 148.11,-122"/>
<text text-anchor="middle" x="86" y="-99.8" font-family="Times,serif" font-size="14.00">PlayoutComponent</text>
</g>
<!-- PlayoutComponent&#45;&gt;PublicModule -->
<g id="edge5" class="edge">
<title>PlayoutComponent&#45;&gt;PublicModule</title>
<path fill="none" stroke="black" d="M86,-122.28C86,-143.32 86,-175 86,-175 86,-175 375.98,-175 375.98,-175"/>
<polygon fill="black" stroke="black" points="375.98,-178.5 385.98,-175 375.98,-171.5 375.98,-178.5"/>
</g>
<!-- PublicRoutingModule -->
<g id="node7" class="node">
<title>PublicRoutingModule</title>
<polygon fill="#8dd3c7" stroke="black" points="866.45,-122 863.45,-126 842.45,-126 839.45,-122 725.55,-122 725.55,-86 866.45,-86 866.45,-122"/>
<text text-anchor="middle" x="796" y="-99.8" font-family="Times,serif" font-size="14.00">PublicRoutingModule</text>
</g>
<!-- PublicRoutingModule&#45;&gt;PublicModule -->
<g id="edge6" class="edge">
<title>PublicRoutingModule&#45;&gt;PublicModule</title>
<path fill="none" stroke="black" d="M796,-122.28C796,-143.32 796,-175 796,-175 796,-175 491.7,-175 491.7,-175"/>
<polygon fill="black" stroke="black" points="491.7,-171.5 481.7,-175 491.7,-178.5 491.7,-171.5"/>
</g>
</g>
</svg>
